<?xml version="1.0" encoding="UTF-8"?>
<svg version="1.1" viewBox="0 0 1660 964" width="415" height="241" xmlns="http://www.w3.org/2000/svg">
<path transform="translate(0)" d="m0 0h1660v964h-1660z" fill="#F8F9F8"/>
<path transform="translate(482,29)" d="m0 0 4 1 13 8 18 10 23 13 28 16 25 14 21 12 16 9 42 24 25 14 32 18 24 14 50 28 24 14 18 10 24 14 16 9-3 3-23 14-4 2-10-6-25-14-24-14-20-11-49-28-85-48-28-16-23-13-21-12-25-14-42-24-18-10v-2l-7 3-14 8-24 14-25 15-17 10-26 15-17 10-41 24-27 16-49 29-24 14-32 19-40 24-22 13-6 3-1 3 3 339 1 80 1 8 18 10 23 13 18 10 35 20 23 13 25 14 24 14 13 7 23 13 25 14 21 12 25 14 19 11 11 6 10 6 11 6 21 12 23 13 5 2 5-4 19-11 27-16 53-31 24-14 22-13 17-10 106-62 27-16 26-15 15-9 24-14 4-1 30 15-4 4-22 13-25 15-95 56-41 24-15 9-48 28-20 12-19 11-15 9-66 39-15 9-13 8-5-1-15-9-11-6-27-15-15-9-10-5-15-9-13-7-17-10-18-10-23-13-21-12-18-10-28-16-27-15-24-14-22-12-19-11-23-13-18-10-16-9-18-10-3-2-1-49-2-348v-68l17-10 28-17 26-15 17-10 13-8 11-6 13-8 29-17 21-12 34-20 10-6 27-16 34-20 15-9 16-9 10-6 27-16 41-24z" fill="#90AB9F"/>
<path transform="translate(1081,387)" d="m0 0h103l5 5 9 10 5 4 1 2v97l-1 8-13 12-4 5 1 4 4 5 8 7 4 4v44h-41l-1-19-9-11-29-29-4-3h-60v62h-41l-1-205 1-1z" fill="#90AB9F"/>
<path transform="translate(1234,387)" d="m0 0h135l40 1v21l-1 20-133 1 1 41 122 1v41l-123 1v39h125l9 1v40h-176v-206z" fill="#90AB9F"/>
<path transform="translate(1436,388)" d="m0 0h176l-1 41-134 1 1 41h114l9 1v41l-101 1h-23l1 39 133 1v40h-175z" fill="#90AB9F"/>
<path transform="translate(483,80)" d="m0 0 11 6 26 14 24 14 20 11 42 24 18 10 28 16 46 26 21 12 23 13 25 14 26 15 23 13 18 10 7 4v2l-7 4-7-1-17-10-27-15-21-12-25-14-21-12-46-26-20-11-10-6-23-13-25-14-16-9-19-11-27-15-24-14-21-12h-5l-20 12-22 13-29 17-27 16-24 14-22 13-105 62-66 39-19 11-8 5v72l2 254 1 76 5 2 39 22 27 15 24 14 25 14 16 9 28 16 25 14 21 12 25 14 49 28 27 15 16 9 21 12 4-2 24-14 22-13 26-15 88-52 26-15 24-14 13-8 29-17 26-15 44-26 16-9 6-2 7 5-4 4-23 13-13 8-24 14-44 26-29 17-25 15-26 15-15 9-146 86-3 2-6-1-16-9-24-14-19-10-9-6-26-14-17-10-25-14-24-14-24-13-49-28-23-13-22-12-19-11-28-16-26-14-5-4-1-106-1-213v-95l48-28 22-13 24-14 22-13 34-20 68-40 29-17 27-16 24-14 44-26z" fill="#90AB9F"/>
<path transform="translate(853,387)" d="m0 0 144 1v36l-1 5-72 1 1 33v131h-42l-1-164-71-1-1-20v-21z" fill="#90AB9F"/>
<path transform="translate(1092,429)" d="m0 0h55l14 1 1 1v59h-102l-1-1v-59z" fill="#F8F9F8"/>
<path transform="translate(445,494)" d="m0 0h7l12 5 16 10 11 11 4-1 10-10 14-9 10-5 4-1h7l-1 5-18 18-6 12-3 11-1 7v27l1 17 3 15 4 12 7 10v2l4 2 4 5-14-1-13-4-14-7-5 1-14 8-9 2-14 1 2-4 8-7 7-12 3-15 1-4 1-14v-32l-2-16-4-11-7-9-15-14-1-3z" fill="#90AB9F"/>
<path transform="translate(432,456)" d="m0 0h7l13 4 8 6 8 10-1 3-9 2h-14l-12-6-8-7-5-7 1-2z" fill="#90AB9F"/>
<path transform="translate(548,456)" d="m0 0 9 1 9 3-3 5-6 7-10 7-7 2h-13l-9-2-1-2 7-10 7-6 11-4z" fill="#90AB9F"/>
<path transform="translate(590,418)" d="m0 0h10l8 3-2 5-6 8-8 5-8 3h-7l-10-3 2-5 6-9 8-5z" fill="#90AB9F"/>
<path transform="translate(392,374)" d="m0 0 9 1 10 3 7 6 5 9 2 5v6l-5 1-10-2-10-7-5-6-4-13z" fill="#90AB9F"/>
<path transform="translate(385,418)" d="m0 0h11l9 4 8 7 5 8v2l-11 3-9-1-9-4-7-6-5-8 1-3z" fill="#90AB9F"/>
<path transform="translate(582,375)" d="m0 0h10v8l-4 8-9 10-6 3-14 1 3-14 6-8 8-6z" fill="#90AB9F"/>
<path transform="translate(380,450)" d="m0 0 9 2 10 6 5 4-1 3-11 6-11 1-10-3-9-7-2-4 5-3 9-4z" fill="#90AB9F"/>
<path transform="translate(402,482)" d="m0 0h11l9 3 6 4-1 4-11 7-11 3-13-3-7-5 1-4 9-7z" fill="#90AB9F"/>
<path transform="translate(457,337)" d="m0 0h3l9 13 2 5v12l-4 12-5-1-7-7-5-9v-11l4-10z" fill="#90AB9F"/>
<path transform="translate(599,451)" d="m0 0h11l10 4 6 4v2l-11 7-11 4-12-2-11-6 2-4 11-7z" fill="#90AB9F"/>
<path transform="translate(577,481)" d="m0 0 10 2 6 4 5 4 2 4-8 5-6 2h-11l-14-7-5-5 9-6z" fill="#90AB9F"/>
<path transform="translate(485,421)" d="m0 0 5 2 8 9 4 9 1 4v7l-5 10-4-1-7-7-6-10-1-11z" fill="#90AB9F"/>
<path transform="translate(526,337)" d="m0 0 3 1 5 12v11l-6 12-7 6-3-1-4-9v-13l4-9 7-9z" fill="#90AB9F"/>
<path transform="translate(493,365)" d="m0 0h3l4 11v7l-3 9-5 8-7 5-3-1-4-10 2-13 7-11z" fill="#90AB9F"/>
<path transform="translate(539,387)" d="m0 0h3l-1 8-4 8-5 6-8 5-10 2h-5l1-10 6-8 6-5 8-4z" fill="#90AB9F"/>
<path transform="translate(542,422)" d="m0 0h13l-1 7-5 8-9 7-5 2h-14v-6l6-9 6-5z" fill="#90AB9F"/>
<path transform="translate(433,421)" d="m0 0h8l9 4 9 7 5 9v5h-14l-8-4-7-6-4-7v-7z" fill="#90AB9F"/>
<path transform="translate(437,384)" d="m0 0 8 1 12 7 6 8 2 8-1 5-8-1-9-5-6-7-3-7z" fill="#90AB9F"/>
<path transform="translate(490,477)" d="m0 0 6 1 6 4 2 4v9l-6 5-2 1h-7l-6-4-2-3v-9l4-5z" fill="#90AB9F"/>
<path transform="translate(637,424)" d="m0 0h8l10 5v3l-10 8-6 2h-10l-8-4 1-5 8-6z" fill="#90AB9F"/>
<path transform="translate(339,424)" d="m0 0h9l8 4 8 7-1 4-8 3h-10l-8-4-8-7 1-3z" fill="#90AB9F"/>
<path transform="translate(358,384)" d="m0 0h11l5 3 6 7 4 7v3h-12l-8-3-6-4-4-5-2-4v-3z" fill="#90AB9F"/>
<path transform="translate(630,476)" d="m0 0 7 1 12 8 2 3-8 5-3 1h-8l-10-4-5-4-1-5 7-4z" fill="#90AB9F"/>
<path transform="translate(411,343)" d="m0 0 6 1 9 6 5 6 2 6v11l-5-1-8-4-7-8-2-5z" fill="#90AB9F"/>
<path transform="translate(569,344)" d="m0 0 5 1v9l-4 8-6 7-7 4h-4l-1-2v-9l3-7 6-7z" fill="#90AB9F"/>
<path transform="translate(555,512)" d="m0 0 8 2 8 5 6 7 1 5-1 1h-14l-8-4-7-10-1-5z" fill="#90AB9F"/>
<path transform="translate(349,477)" d="m0 0h11l8 4v4l-7 6-9 3-11-2-5-4 1-4 10-6z" fill="#90AB9F"/>
<path transform="translate(618,384)" d="m0 0h12l2 1-2 5-6 8-7 5-10 1-6-1 1-4 6-10 6-4z" fill="#90AB9F"/>
<path transform="translate(489,311)" d="m0 0 4 4 4 9v10l-4 10-2 3h-3l-6-12v-14l6-9z" fill="#90AB9F"/>
<path transform="translate(423,513)" d="m0 0h14l-1 6-6 8-6 4-3 1h-13l-1-2 6-12z" fill="#90AB9F"/>
</svg>
