<?xml version="1.0" standalone="no"?>
<!DOCTYPE svg PUBLIC "-//W3C//DTD SVG 20010904//EN"
 "http://www.w3.org/TR/2001/REC-SVG-20010904/DTD/svg10.dtd">
<svg version="1.0" xmlns="http://www.w3.org/2000/svg"
 width="300.000000pt" height="174.000000pt" viewBox="0 0 300.000000 174.000000"
 preserveAspectRatio="xMidYMid meet">
<metadata>
Created by potrace 1.10, written by Peter Selinger 2001-2011
</metadata>
<g transform="translate(0.000000,174.000000) scale(0.100000,-0.100000)"
fill="#000000" stroke="none">
<path d="M654 1558 c-121 -70 -230 -135 -244 -143 -14 -8 -78 -45 -143 -82
l-119 -68 6 -420 c5 -382 7 -420 23 -430 30 -18 259 -147 538 -305 72 -40 139
-79 150 -85 18 -12 48 3 275 137 140 83 304 179 364 214 l108 62 -28 15 c-29
15 -32 13 -359 -180 -181 -108 -334 -196 -340 -196 -5 0 -32 13 -60 30 -27 17
-124 72 -215 123 -91 51 -217 122 -281 158 l-116 66 -8 390 c-4 226 -3 392 2
393 9 3 109 62 466 274 l197 117 187 -105 c103 -58 255 -145 339 -193 144 -82
153 -86 178 -73 14 8 26 16 26 18 0 2 -21 15 -47 28 -27 14 -190 105 -364 204
l-317 180 -218 -129z"/>
<path d="M547 1403 l-318 -186 2 -296 c2 -163 5 -331 8 -375 l6 -79 315 -178
c173 -98 319 -179 324 -179 5 0 143 78 305 174 163 96 304 178 314 181 18 7
24 25 8 25 -5 0 -108 -58 -228 -128 -349 -205 -395 -232 -399 -232 -5 0 -301
167 -514 289 l-115 66 -3 361 -2 361 309 182 c170 99 312 181 315 181 3 0 106
-57 229 -126 122 -70 261 -149 310 -176 48 -27 93 -48 99 -46 7 3 -8 16 -32
30 -25 14 -97 55 -160 90 -63 36 -187 106 -276 157 -88 50 -165 91 -170 91 -5
0 -153 -84 -327 -187z"/>
<path d="M874 1167 c-7 -20 -2 -47 11 -50 14 -3 19 43 6 56 -7 7 -12 6 -17 -6z"/>
<path d="M816 1114 c-7 -17 10 -54 24 -54 11 0 13 30 4 54 -8 20 -20 20 -28 0z"/>
<path d="M936 1114 c-9 -24 -7 -54 4 -54 14 0 31 37 24 54 -8 20 -20 20 -28 0z"/>
<path d="M740 1107 c0 -18 28 -42 37 -33 9 8 -9 38 -25 44 -7 2 -12 -3 -12
-11z"/>
<path d="M1012 1108 c-14 -14 -16 -38 -4 -38 12 0 32 23 32 37 0 16 -12 17
-28 1z"/>
<path d="M876 1064 c-9 -23 -7 -54 3 -54 11 0 21 25 21 51 0 23 -15 25 -24 3z"/>
<path d="M710 1056 c0 -16 32 -46 48 -46 15 0 15 11 -1 31 -17 22 -47 32 -47
15z"/>
<path d="M1037 1050 c-29 -23 -35 -40 -14 -40 18 0 50 36 45 50 -2 7 -14 3
-31 -10z"/>
<path d="M640 1036 c0 -15 37 -32 47 -22 9 8 -17 36 -33 36 -8 0 -14 -6 -14
-14z"/>
<path d="M791 1036 c2 -10 15 -26 28 -34 22 -15 23 -15 20 2 -2 10 -15 26 -28
34 -22 15 -23 15 -20 -2z"/>
<path d="M1100 1035 c-7 -9 -10 -19 -6 -22 8 -9 38 9 44 25 5 17 -23 15 -38
-3z"/>
<path d="M937 1022 c-21 -22 -21 -32 -4 -32 14 0 47 31 47 43 0 14 -27 7 -43
-11z"/>
<path d="M1463 1003 l2 -37 68 3 68 2 -3 -150 -3 -151 38 0 37 0 0 151 0 151
65 -4 65 -3 0 38 0 37 -170 0 -169 0 2 -37z m282 3 c6 -2 -10 -7 -35 -12 -63
-13 -71 -33 -68 -173 1 -72 -2 -116 -9 -118 -6 -2 -11 42 -12 123 -1 73 -7
134 -13 144 -7 11 -29 21 -55 25 -80 12 -34 23 74 18 60 -3 113 -6 118 -7z"/>
<path d="M1840 855 l0 -185 38 0 37 0 -3 55 -4 55 59 0 c55 0 61 -3 96 -38 20
-21 37 -46 37 -55 0 -13 9 -17 38 -17 38 0 38 0 34 38 -2 20 -11 45 -20 55
-14 15 -14 19 1 35 12 13 16 41 18 110 3 134 5 132 -183 132 l-148 0 0 -185z
m296 150 c10 -8 14 -15 7 -15 -6 0 -9 -9 -6 -20 3 -11 0 -20 -6 -20 -6 0 -11
5 -11 11 0 18 -33 46 -38 31 -2 -7 -7 -10 -12 -7 -4 3 -38 6 -74 7 -84 2 -106
-15 -106 -80 0 -70 17 -82 117 -82 71 0 86 3 104 21 12 12 19 30 17 46 -2 15
2 28 8 30 16 5 16 -87 0 -116 -10 -18 -11 -32 -3 -57 6 -19 8 -37 4 -40 -3 -4
-28 17 -56 45 -46 47 -53 51 -98 51 -57 0 -93 -21 -93 -55 0 -13 -4 -27 -10
-30 -6 -4 -10 45 -10 139 l0 145 98 4 c53 1 109 4 123 5 14 1 34 -5 45 -13z
m-36 -95 l0 -59 -95 1 -95 2 0 58 0 58 95 0 95 0 0 -60z"/>
<path d="M2230 855 l0 -185 160 0 160 0 0 35 0 35 -125 0 -125 0 0 41 0 42
115 -5 115 -5 0 38 0 39 -115 0 -115 0 0 41 0 40 123 -2 122 -1 3 36 3 36
-160 0 -161 0 0 -185z m238 155 c17 0 32 -5 32 -10 0 -6 -38 -10 -96 -9 -107
1 -123 -8 -124 -68 0 -48 31 -64 124 -65 42 0 76 -4 76 -8 0 -4 -36 -7 -80 -7
-98 -1 -123 -16 -118 -72 4 -52 32 -63 141 -57 48 3 87 2 87 -3 0 -10 -4 -10
-144 -11 -54 -1 -100 1 -102 3 -8 8 -7 294 1 306 6 11 27 12 89 7 45 -3 96 -6
114 -6z"/>
<path d="M2595 855 l0 -185 158 0 157 0 0 35 0 35 -120 0 -120 0 0 40 0 40
110 -6 110 -6 0 41 0 41 -110 0 -110 0 0 41 0 41 120 -4 120 -3 0 38 0 37
-157 0 -158 0 0 -185z m280 145 c-3 -5 -48 -9 -102 -8 -93 2 -97 1 -116 -24
-34 -45 0 -115 51 -105 29 6 52 -1 52 -14 0 -5 -18 -9 -40 -9 -44 0 -80 -26
-80 -59 0 -10 9 -30 21 -45 19 -25 25 -26 110 -26 49 0 89 -3 89 -7 0 -5 -53
-6 -117 -3 l-118 5 -3 140 c-1 76 0 145 2 152 4 10 37 13 131 13 81 0 124 -4
120 -10z m-25 -140 c0 -14 -24 -23 -47 -17 -15 3 -14 6 7 15 32 14 40 14 40 2z"/>
<path d="M691 980 c-10 -5 -7 -12 10 -24 30 -21 51 -21 47 0 -4 20 -40 35 -57
24z"/>
<path d="M1053 980 c-24 -10 -32 -40 -10 -40 20 0 58 30 52 41 -7 11 -13 11
-42 -1z"/>
<path d="M602 973 c-18 -7 4 -33 29 -33 26 0 33 17 10 29 -11 6 -21 11 -23 10
-2 0 -9 -3 -16 -6z"/>
<path d="M780 970 c0 -13 49 -44 57 -36 9 8 -27 46 -44 46 -7 0 -13 -4 -13
-10z"/>
<path d="M870 961 c0 -30 11 -51 26 -51 17 0 18 24 4 51 -14 24 -30 25 -30 0z"/>
<path d="M955 960 c-10 -11 -15 -23 -12 -26 8 -8 57 23 57 36 0 17 -26 11 -45
-10z"/>
<path d="M1137 969 c-21 -12 -14 -29 12 -29 27 0 46 26 25 34 -19 7 -15 8 -37
-5z"/>
<path d="M667 921 c-17 -6 -17 -8 -4 -20 18 -14 63 -11 60 4 -2 14 -35 23 -56
16z"/>
<path d="M1072 919 c-13 -5 -20 -13 -17 -19 8 -12 45 -13 64 -1 22 14 -18 31
-47 20z"/>
<path d="M771 910 c-10 -5 -7 -12 10 -24 38 -26 82 -16 47 11 -21 16 -44 22
-57 13z"/>
<path d="M968 908 c-32 -11 -38 -38 -9 -38 27 0 69 35 50 42 -8 3 -26 1 -41
-4z"/>
<path d="M617 874 c-4 -4 -7 -11 -7 -16 0 -13 50 -6 53 7 2 12 -36 19 -46 9z"/>
<path d="M877 874 c-14 -15 -6 -34 14 -34 14 0 19 5 17 17 -3 18 -20 27 -31
17z"/>
<path d="M1117 874 c-11 -12 3 -24 29 -24 16 0 24 5 22 13 -5 13 -40 22 -51
11z"/>
<path d="M710 860 c-12 -7 -12 -12 -3 -21 15 -15 68 5 58 21 -8 13 -35 13 -55
0z"/>
<path d="M1015 860 c-9 -15 43 -36 56 -23 6 6 8 16 5 22 -9 14 -53 14 -61 1z"/>
<path d="M830 813 c32 -36 32 -38 28 -112 -4 -63 -9 -78 -29 -94 l-24 -20 30
8 c39 9 75 9 102 0 l22 -7 -20 38 c-12 25 -19 59 -19 96 0 50 4 62 31 93 36
41 21 46 -28 9 l-33 -25 -33 25 c-49 38 -64 32 -27 -11z"/>
<path d="M749 800 l-24 -19 28 -1 c15 0 27 2 27 4 0 2 3 11 6 20 8 22 -9 20
-37 -4z"/>
<path d="M994 804 c3 -9 6 -18 6 -20 0 -2 12 -4 28 -4 l27 1 -24 19 c-28 24
-45 26 -37 4z"/>
</g>
</svg>
