<svg xmlns="http://www.w3.org/2000/svg" xml:space="preserve" width="2048" height="2048" style="shape-rendering:geometricPrecision;text-rendering:geometricPrecision;image-rendering:optimizeQuality;fill-rule:evenodd;clip-rule:evenodd"><rect width="2048" height="2048" rx="225" ry="225" style="fill:#8bc34a"/><path d="M1714 802c-65 4-88-96-126-128 35-20 54-71 93-88 22-9 53-4 71-24-104-8-134 73-199 110-31 0-59-1-90-7-11 11-14 40-29 40-1-14-3-29 0-42 31-30 68-63 58-128-18 18-8 43-24 66-13 18-52 24-62 44-12 25-4 92-15 124-7 21-48 49-62 62-18 16-38 59-62 64-23 5-47-9-75-11-19 14-36 39-57 46 32-105-48-162-58-252-3-23 1-51-2-75-12-7-27-19-38-20 5 18 36 38 13 66-45 4-73-39-110-38-31 1-57 42-84 55 26-3 48-25 73-35 31 17 77 19 110 35 6 19 15 36 22 55-23 4-45 7-68 2-15 39-50 58-82 80 13 5 23-8 38-7 0 13 1 27-5 33-1-4 2-13-2-15-13 43 22 70 38 100-1-43-33-135 22-168 26-4 57 0 73-2 14 45 38 87 35 137-2 28-20 38-31 60-17 34-26 48-51 80-9 11-37 51-42 51-10 0-22-33-24-35-27-25-81-27-100-53-8-11-15-37-22-57s-22-42-24-57c-4-30 11-70 11-102-1-74-55-153-38-228 8-36 42-70 62-97 24-32 52-58 73-86 0-35 0-74-4-101-2 0-3-2-5-2 4 126-93 161-137 234 20-48-9-83-37-108 0 22 23 42 26 66 4 33-16 67-16 102-2 91 58 193 18 281-12-14-4-32-11-51-4-11-16-16-18-27-4-20 8-42 5-62-2-16-21-28-24-44-5-28 11-52 11-79-21 15-22 50-31 77 21 26 29 66 16 108-49 2-62-32-90-51-26 2-60 6-91 6 17 23 58 13 90 20 22 23 43 48 86 49 24 40 35 103 58 137-38 1-33-50-71-42 19 9 19 30 31 46 12 15 39 16 55 29 31 25 33 70 55 106-73 16-141 84-216 31-28-62-81-98-99-170-5 22 3 42 4 68 14 29 46 41 51 79-16-28-55-60-71-97-8-18-19-77-15-99 6-33 55-46 64-82-21 28-83 37-88 77-4 31 14 63 2 91-25-54-59-83-55-154 2-34 26-74 5-113-13 55-28 109-22 168-46-29-105 4-139 29 47 2 80-36 132-16 57 87 106 181 181 250-31 53-104 54-176 66 34 26 76-8 113 11-1 27-34 25-38 46-7 30 25 62 16 102 10-28 5-68 5-95 44-30 52-96 108-113 27 8 52 17 77 27-33 36-48 108-27 168-1-54-6-103 26-133 21-21 61-33 90-47s63-46 91-48c31-2 76 41 95 71 136 219-48 221-86 461-5 32-71 145-90 157-3 2-7 3-11 4h286c3-12 43-87 44-100 7-114 9-55 37-153 0-55 3-150 25-184 57-28 145-24 208-40 27 20 48 47 75 68 8 31 27 59 33 86 8-30-12-72-13-111-24-20-48-40-68-64-16-5-42-2-59-7 27-37 133-38 183-29 41 7 48 55 79 66-12-29-33-49-44-79-28-7-57-12-86-16 36-30 84-58 82-119-29 47-62 91-111 117-23 12-58 1-90 9-25 6-44 39-75 49-33 11-72 3-111 4-6-17-15-30-35-33 1-50-40-90-40-137 0-28 21-87 33-110 11-21 52-67 73-71 37-8 67 5 97-7 29-12 39-55 71-68 18 10 38 18 48 36-12 43-7 103-53 111-5 18-14 32-18 51 18-24 39-60 75-71 4-33 13-61 27-82 37 6 66-14 93-5 37 12 43 62 59 91 11-61-32-84-53-119-24 4-53 14-80 7-22-5-60-30-64-46-6-26 27-58 38-75 17-26 32-43 46-68 29 6 62 1 86 2 44 5 52 94 82 112 16 9 58 13 73 11 33-5 56-49 64-73-21 20-37 55-71 57z" style="fill:#fffffe"/></svg>